<svg width="20" height="20" viewBox="0 0 20 20" fill="none" xmlns="http://www.w3.org/2000/svg">
<path fill-rule="evenodd" clip-rule="evenodd" d="M10 0C4.48 0 0 4.48 0 10C0 15.52 4.48 20 10 20C15.51 20 20 15.52 20 10C20 4.48 15.51 0 10 0ZM16.606 4.61C17.8 6.064 18.514 7.918 18.536 9.924C18.254 9.87 15.434 9.294 12.592 9.652C12.526 9.512 12.472 9.36 12.408 9.208C12.234 8.796 12.04 8.372 11.844 7.972C14.99 6.692 16.42 4.848 16.606 4.61ZM10 1.476C12.17 1.476 14.154 2.29 15.662 3.624C15.51 3.84 14.22 5.566 11.182 6.704C9.782 4.134 8.232 2.03 7.994 1.704C8.634 1.55 9.306 1.476 10 1.476ZM6.366 2.278C6.594 2.582 8.112 4.696 9.534 7.212C5.542 8.274 2.018 8.254 1.638 8.254C2.19 5.608 3.98 3.406 6.366 2.278ZM1.454 10.01C1.454 9.924 1.454 9.836 1.454 9.75C1.822 9.76 5.966 9.816 10.228 8.536C10.478 9.014 10.706 9.502 10.922 9.99C10.814 10.022 10.694 10.056 10.586 10.088C6.182 11.508 3.84 15.392 3.644 15.718C2.288 14.208 1.454 12.202 1.454 10.01ZM10 18.546C8.026 18.546 6.204 17.874 4.762 16.746C4.914 16.432 6.65 13.09 11.464 11.41C11.486 11.4 11.496 11.4 11.518 11.388C12.722 14.5 13.21 17.114 13.34 17.864C12.31 18.308 11.182 18.546 10 18.546ZM14.762 17.082C14.676 16.562 14.22 14.066 13.102 10.998C15.78 10.574 18.124 11.27 18.416 11.366C18.048 13.742 16.682 15.792 14.762 17.082Z" fill="white"/>
</svg>
