<svg width="19" height="18" viewBox="0 0 19 18" fill="none" xmlns="http://www.w3.org/2000/svg">
<path d="M0 8.9993C0 12.6844 2.21633 15.8505 5.38755 17.2427C5.36224 16.6141 5.38333 15.8597 5.54435 15.1763C5.71733 14.4457 6.70244 10.272 6.70244 10.272C6.70244 10.272 6.41485 9.6975 6.41485 8.84812C6.41485 7.5143 7.18762 6.51797 8.15094 6.51797C8.9694 6.51797 9.36528 7.1332 9.36528 7.86937C9.36528 8.69203 8.84002 9.9232 8.57072 11.0637C8.34501 12.0185 9.04956 12.7969 9.99108 12.7969C11.6962 12.7969 12.8452 10.6066 12.8452 8.01211C12.8452 6.03984 11.5162 4.56328 9.10019 4.56328C6.36985 4.56328 4.66893 6.59953 4.66893 8.87344C4.66893 9.65742 4.90026 10.2108 5.26239 10.639C5.42903 10.8359 5.45224 10.9146 5.39177 11.1403C5.34888 11.3063 5.24973 11.7049 5.20825 11.8624C5.14848 12.0902 4.96355 12.1718 4.75753 12.0874C3.50029 11.5741 2.91456 10.1967 2.91456 8.64914C2.91456 6.09258 5.07113 3.02695 9.347 3.02695C12.7833 3.02695 15.0453 5.5132 15.0453 8.18227C15.0453 11.7127 13.0821 14.3508 10.1887 14.3508C9.21691 14.3508 8.30282 13.8255 7.98991 13.2286C7.98991 13.2286 7.46747 15.3021 7.35708 15.7029C7.16652 16.3969 6.79245 17.0902 6.45142 17.6309C7.26075 17.8699 8.11578 18 9.00245 18C13.9723 18 18.0028 13.9704 18.0028 9C18.0028 4.02961 13.973 9.2002e-08 9.00245 9.2002e-08C4.02976 -0.000703033 0 4.02891 0 8.9993Z" fill="white"/>
</svg>
