<svg width="32" height="21" viewBox="0 0 32 21" fill="none" xmlns="http://www.w3.org/2000/svg">
<path d="M12.914 9.05918C12.914 9.05918 15.9404 8.83537 15.9404 5.28118C15.9438 1.73367 13.4652 0 10.3285 0H4.54963H4.37927H0V19.8454H4.37927H4.54963H10.3252C10.3252 19.8454 16.6285 20.0458 16.6285 13.9863C16.6319 13.9896 16.9058 9.05918 12.914 9.05918ZM4.54963 3.52747H9.58363H10.3285C10.3285 3.52747 11.7315 3.52747 11.7315 5.59184C11.7315 7.65621 10.9064 7.95685 9.97111 7.95685H4.54963V3.52747ZM10.0613 16.3212H4.54963V11.0167H10.3252C10.3252 11.0167 12.4163 10.9899 12.4163 13.7424C12.4196 16.0373 10.8897 16.2978 10.0613 16.3212Z" fill="white"/>
<path d="M28.958 1.16913H20.7706V3.61431H28.958V1.16913Z" fill="white"/>
<path d="M25.0397 5.05072C17.4069 5.05072 17.4135 12.6769 17.4135 12.6769C17.4135 12.6769 16.8891 20.2629 25.0397 20.2629C25.0397 20.2629 31.8307 20.6504 31.8307 14.9851H28.34C28.34 14.9851 28.4569 17.1196 25.1566 17.1196C25.1566 17.1196 21.6625 17.3534 21.6625 13.6656H31.9443C31.9476 13.6656 33.0734 5.05072 25.0397 5.05072ZM28.1429 11.0167H21.6258C21.6258 11.0167 22.0534 7.95687 25.1198 7.95687C28.183 7.95687 28.1429 11.0167 28.1429 11.0167Z" fill="white"/>
</svg>
